# AST/ASF file generated using VICON BodyLanguage
# -----------------------------------------------
:version 1.10
:name VICON
:units
  mass 1.0
  length 0.45
  angle deg
:documentation
   .ast/.asf automatically generated from VICON data using
   VICON BodyBuilder and BodyLanguage model FoxedUp or BRILLIANT.MOD
:root
   order TX TY TZ RX RY RZ
   axis XYZ
   position 0 0 0  
   orientation 0 0 0 
:bonedata
  begin
     id 1 
     name lhipjoint
     direction 0.54267 -0.795011 0.271047 
     length 2.39899 
     axis 0 0 0  XYZ
  end
  begin
     id 2 
     name lfemur
     direction 0.34202 -0.939693 0  
     length 7.49701  
     axis 0 0 20  XYZ
    dof rx ry rz
    limits (-160.0 20.0)
           (-70.0 70.0)
           (-60.0 70.0)
  end
  begin
     id 3 
     name ltibia
     direction 0.34202 -0.939693 0   
     length 8.1668   
     axis 0 0 20   XYZ
    dof rx
    limits (-10.0 170.0)
  end
  begin
     id 4 
     name lfoot
     direction 0.0736283 -0.202292 0.976554   
     length 2.13544   
     axis -90 7.62852e-016 20   XYZ
    dof rx rz
    limits (-45.0 90.0)
           (-70.0 20.0)
  end
  begin
     id 5 
     name ltoes
     direction 1.53557e-011 -4.22024e-011 1   
     length 1.07411   
     axis -90 7.62852e-016 20   XYZ
    dof rx
    limits (-90.0 20.0)
  end
  begin
     id 6 
     name rhipjoint
     direction -0.538061 -0.797813 0.272002   
     length 2.39057  
     axis 0 0 0  XYZ 
  end
  begin
     id 7 
     name rfemur
     direction -0.34202 -0.939693 0   
     length 7.50152   
     axis 0 0 -20   XYZ
    dof rx ry rz
    limits (-160.0 20.0)
           (-70.0 70.0)
           (-70.0 60.0)
  end
  begin
     id 8 
     name rtibia
     direction -0.34202 -0.939693 0   
     length 8.05793   
     axis 0 0 -20   XYZ
    dof rx
    limits (-10.0 170.0)
 end
 begin
     id 9 
     name rfoot
     direction -0.0765195 -0.210236 0.974652   
     length 2.28698  
     axis -90 -7.62852e-016 -20   XYZ
    dof rx rz
    limits (-45.0 90.0)
           (-20.0 70.0)
  end
  begin
     id 10 
     name rtoes
     direction -1.53542e-011 -4.21847e-011 1   
     length 1.14762   
     axis -90 -7.62852e-016 -20   XYZ
    dof rx
    limits (-90.0 20.0)
  end
  begin
     id 11 
     name lowerback
     direction -0.0217239 0.996592 -0.0795765   
     length 2.08176   
     axis 0 0 0   XYZ
    dof rx ry rz
    limits (-20.0 45.0)
           (-30.0 30.0)
           (-30.0 30.0)
  end
  begin
     id 12 
     name upperback
     direction -0.00563773 0.999651 -0.0258155   
     length 2.08898   
     axis 0 0 0   XYZ
    dof rx ry rz
    limits (-20.0 45.0)
           (-30.0 30.0)
           (-30.0 30.0)
  end
  begin
     id 13 
     name thorax
     direction 0.0032706 0.999923 0.0119599   
     length 2.0968   
     axis 0 0 0   XYZ
    dof rx ry rz
    limits (-20.0 45.0)
           (-30.0 30.0)
           (-30.0 30.0)
  end
  begin
     id 14 
     name lowerneck
     direction -0.0285886 0.99568 0.0883427   
     length 1.81272   
     axis 0 0 0   XYZ
    dof rx ry rz
    limits (-20.0 45.0)
           (-30.0 30.0)
           (-30.0 30.0)
  end
  begin
     id 15 
     name upperneck
     direction 0.0807535 0.97985 -0.18268   
     length 1.82518   
     axis 0 0 0   XYZ
    dof rx ry rz
    limits (-20.0 45.0)
           (-30.0 30.0)
           (-30.0 30.0)
  end
  begin
     id 16
     name head
     direction 0.0236605 0.997053 -0.0729767  
     length 1.84443  
     axis 0 0 0   XYZ
    dof rx ry rz
    limits (-20.0 45.0)
           (-30.0 30.0)
           (-30.0 30.0)
  end
  begin
     id 17 
     name lclavicle
     direction 0.918986 0.39378 -0.0200683  
     length 3.27822  
     axis 0 0 0   XYZ
    dof ry rz
    limits (-20.0 10.0)
           (0.0 20.0)
  end
  begin
     id 18 
     name lhumerus
     direction 1 -4.4897e-011 2.09544e-027   
     length 5.5568   
     axis 180 -30 -90   XYZ
    dof rx ry rz
    limits (-60.0 90.0)
           (-90.0 90.0)
           (-90.0 90.0)
  end
  begin
     id 19
     name lradius
     direction 1 -4.48957e-011 -1.27696e-026   
     length 3.63979   
     axis 180 -30 -90   XYZ
    dof rx
    limits (-10.0 170.0)
  end
  begin
     id 20
     name lwrist
     direction 1 -4.49001e-011 -1.49001e-026   
     length 1.8199   
     axis 9.0955e-015 90 90   XYZ
    dof ry
    limits (-180.0 0.0)
 end
  begin
     id 21 
     name lhand
     direction 1 -4.48709e-011 -2.9758e-026   
     length 0.569419   
     axis 1.90115e-014 90 90   XYZ
    dof rx rz
    limits (-90.0 90.0)
           (-45.0 45.0)
  end
  begin
     id 22 
     name lfingers
     direction 1 -4.49175e-011 -5.96505e-026   
     length 0.45908   
     axis 3.80223e-014 90 90   XYZ
    dof rx
    limits (0.0 90.0)
  end
  begin
     id 23
     name lthumb
     direction 0.707107 -6.34864e-011 0.707107   
     length 0.65915   
     axis -90 45 -3.84942e-014   XYZ
    dof rx rz
    limits (-45.0 45.0)
           (-45.0 45.0)
  end
  begin
     id 24 
     name rclavicle
     direction -0.911913 0.396426 -0.106115   
     length 3.46301  
     axis 0 0 0   XYZ 
    dof ry rz
    limits (-10.0 20.0)
           (-20.0 0.0)
  end
  begin
     id 25 
     name rhumerus
     direction -1 -4.48965e-011 7.78516e-028  
     length 5.34339   
     axis 180 30 90   XYZ
    dof rx ry rz
    limits (-90.0 60.0)
           (-90.0 90.0)
           (-90.0 90.0)
  end
  begin
     id 26 
     name rradius
     direction -1 -4.48948e-011 -5.79823e-027   
     length 3.65101   
     axis 180 30 90   XYZ
    dof rx
    limits (-10.0 170.0)
  end
  begin
     id 27 
     name rwrist
     direction -1 -4.48995e-011 -1.48996e-026   
     length 1.8255   
     axis 9.0955e-015 -90 -90   XYZ
    dof ry
    limits (-180.0 0.0)
  end
  begin
     id 28
     name rhand
     direction -1 -4.48957e-011 -2.97937e-026   
     length 0.694249   
     axis 1.90115e-014 -90 -90   XYZ
    dof rx rz
    limits (-90.0 90.0)
           (-45.0 45.0)
  end
  begin
     id 29
     name rfingers
     direction -1 -4.4898e-011 -5.95943e-026   
     length 0.559721   
     axis 3.80223e-014 -90 -90   XYZ
    dof rx
    limits (0.0 90.0)
  end
  begin
     id 30
     name rthumb
     direction -0.707107 -6.34969e-011 0.707107   
     length 0.803651   
     axis -90 -45 3.84942e-014   XYZ
    dof rx rz
    limits (-45.0 45.0)
           (-45.0 45.0)
  end
:hierarchy
  begin
    root lhipjoint rhipjoint lowerback
    lhipjoint lfemur
    lfemur ltibia
    ltibia lfoot
    lfoot ltoes
    rhipjoint rfemur
    rfemur rtibia
    rtibia rfoot
    rfoot rtoes
    lowerback upperback
    upperback thorax
    thorax lowerneck lclavicle rclavicle
    lowerneck upperneck
    upperneck head
    lclavicle lhumerus
    lhumerus lradius
    lradius lwrist
    lwrist lhand lthumb
    lhand lfingers
    rclavicle rhumerus
    rhumerus rradius
    rradius rwrist
    rwrist rhand rthumb
    rhand rfingers
  end

#!OML:ASF H:\Terrain\Walking\May29\JustinRory\rory.ASF
:FULLY-SPECIFIED
:DEGREES
33
root 10.1406 18.0226 -15.7903 -1.48847 -26.7753 9.02645
lowerback 6.5976 0.151392 -4.47803
upperback 3.1822 -0.0861275 -0.375336
thorax -0.406565 -0.0939451 2.13231
lowerneck -10.4059 6.80675 5.53233
upperneck 18.4944 11.1608 -13.91
head 8.59543 4.3894 -4.36733
rclavicle 1.98785e-015 -1.19271e-014
rhumerus -41.2848 -16.2041 -66.2753
rradius 33.8151
rwrist 5.65877
rhand -9.11476 35.4593
rfingers 7.12502
rthumb 16.836 6.16916
lclavicle 1.98785e-015 -1.19271e-014
lhumerus -30.9264 12.2709 81.9809
lradius 28.4134
lwrist 0.799645
lhand -22.9854 22.9469
lfingers 7.12502
lthumb 3.45724 52.8986
rfemur -29.7015 1.40811 13.0779
rtibia 43.0218
rfoot -13.2545 -11.9899
rtoes -1.74265
lfemur -6.65234 1.05454 -28.839
ltibia 31.6156
lfoot -15.4344 -0.608759
ltoes -14.4895
34
root 10.0367 18.0642 -15.6015 -1.31161 -26.5153 8.9618
lowerback 6.15745 0.466427 -3.76136
upperback 2.56893 0.379092 -0.809544
thorax -0.822624 0.164844 1.25207
lowerneck -7.7467 6.28132 6.94225
upperneck 17.7704 10.2753 -14.4912
head 7.86295 4.16347 -4.97353
rclavicle 6.92765e-014 -1.35174e-014
rhumerus -43.9492 -16.9593 -65.6226
rradius 34.3137
rwrist 5.58381
rhand -8.96503 35.4327
rfingers 7.12502
rthumb 16.9801 6.15484
lclavicle 6.92765e-014 -1.35174e-014
lhumerus -31.9434 10.9298 81.6991
lradius 28.6949
lwrist 0.489081
lhand -21.9703 22.8997
lfingers 7.12502
lthumb 4.43744 52.8332
rfemur -29.6531 2.13187 12.9334
rtibia 40.1112
rfoot -12.986 -11.2712
rtoes 0.108532
lfemur -5.66107 1.19878 -28.7287
ltibia 30.7916
lfoot -14.7973 -0.695708
ltoes -15.1843
35
root 9.92967 18.1003 -15.4288 -0.826546 -26.2293 8.40049
lowerback 5.87304 -0.0201648 -3.4475
upperback 3.03108 -0.223342 -0.371453
thorax -0.158476 -0.153063 1.56516
lowerneck -9.83563 6.89291 5.87242
upperneck 18.0862 11.2522 -14.2555
head 8.40374 4.46812 -4.54125
rclavicle 2.24627e-014 1.19271e-014
rhumerus -42.4461 -16.1564 -66.0342
rradius 33.9227
rwrist 5.47168
rhand -9.04408 35.2191
rfingers 7.12502
rthumb 16.904 5.93474
lclavicle 2.24627e-014 1.19271e-014
lhumerus -31.095 12.4747 81.9959
lradius 29.2304
lwrist 0.210792
lhand -22.1854 21.5215
lfingers 7.12502
lthumb 4.22976 51.4593
rfemur -29.675 3.4195 13.1717
rtibia 37.3524
rfoot -12.775 -11.2783
rtoes 3.67584
lfemur -4.85409 1.40626 -28.0575
ltibia 30.0657
lfoot -14.1459 -0.94681
ltoes -15.8272
36
root 9.82067 18.1129 -15.2517 -0.597838 -25.9818 8.3004
lowerback 5.57401 -0.0548342 -3.50354
upperback 3.00478 -0.257681 -0.164352
thorax -0.015967 -0.173841 1.81032
lowerneck -10.5515 6.9527 5.36884
upperneck 18.6766 11.4254 -13.9235
head 8.70603 4.48741 -4.30912
rclavicle 1.09332e-014 -1.90833e-014
rhumerus -42.5977 -16.255 -65.5091
rradius 33.4988
rwrist 5.35254
rhand -8.70301 35.0124
rfingers 7.12502
rthumb 17.2323 5.75649
lclavicle 1.09332e-014 -1.90833e-014
lhumerus -31.1514 12.4622 82.5335
lradius 29.9661
lwrist 0.0392143
lhand -22.4263 21.5125
lfingers 7.12502
lthumb 3.99713 51.4548
rfemur -29.6037 4.81599 12.918
rtibia 34.8392
rfoot -12.2669 -11.7928
rtoes 2.91075
lfemur -4.04558 1.56781 -27.833
ltibia 29.5258
lfoot -13.6902 -1.23885
ltoes -15.1408
37
root 9.71178 18.127 -15.0621 -0.606173 -25.5104 8.50861
lowerback 5.72642 -0.0624979 -4.53983
upperback 2.66535 -0.324327 0.5777
thorax -0.431897 -0.206831 3.16384
lowerneck -11.0494 6.95955 4.37109
upperneck 19.524 11.7253 -13.8688
head 9.06248 4.49903 -4.08385
rclavicle 9.74045e-014 7.95139e-015
rhumerus -43.1442 -15.2956 -64.1856
rradius 33.5219
rwrist 4.90336
rhand -8.03586 34.6657
rfingers 7.12502
rthumb 17.8743 5.46709
lclavicle 9.74045e-014 7.95139e-015
lhumerus -31.8863 13.4002 83.6097
lradius 30.9942
lwrist -0.245565
lhand -22.219 23.0721
lfingers 7.12502
lthumb 4.19734 53.0105
rfemur -29.3516 5.82413 12.3729
rtibia 32.6647
rfoot -12.0658 -12.5078
rtoes 1.21031
lfemur -3.20005 1.48278 -27.9004
ltibia 29.1895
lfoot -13.2695 -1.64801
ltoes -14.2607
38
root 9.60459 18.1459 -14.8775 -0.486641 -24.9201 8.40072
lowerback 5.51575 -0.114796 -4.17841
upperback 2.56247 -0.367245 0.495547
thorax -0.421293 -0.222909 2.87687
lowerneck -10.6767 6.93402 4.81462
upperneck 19.3158 11.6404 -14.1362
head 8.95529 4.4945 -4.2694
rclavicle -9.93923e-015 2.06736e-014
rhumerus -43.7738 -15.5215 -63.9088
rradius 33.4878
rwrist 4.8847
rhand -7.87304 34.7869
rfingers 7.12502
rthumb 18.031 5.60266
lclavicle -9.93923e-015 2.06736e-014
lhumerus -31.8372 12.782 83.8353
lradius 31.4038
lwrist 0.325635
lhand -23.8892 21.817
lfingers 7.12502
lthumb 2.58439 51.7811
rfemur -29.1584 6.66481 12.1814
rtibia 30.9037
rfoot -12.1725 -13.3568
rtoes 2.64821
lfemur -2.48632 1.34343 -27.6323
ltibia 29.0474
lfoot -12.6813 -2.0562
ltoes -14.8518
39
root 9.49506 18.1505 -14.7059 -0.338297 -24.4727 8.31129
lowerback 5.22263 -0.0769768 -3.96805
upperback 2.62516 -0.292639 0.472934
thorax -0.201436 -0.189348 2.72895
lowerneck -10.5368 6.79588 5.21013
upperneck 18.9302 11.4224 -14.5863
head 8.82656 4.40499 -4.51776
rclavicle -5.96354e-016 -2.54444e-014
rhumerus -44.0682 -16.064 -63.5066
rradius 33.2918
rwrist 5.11301
rhand -7.79116 35.2325
rfingers 7.12502
rthumb 18.1098 6.05554
lclavicle -5.96354e-016 -2.54444e-014
lhumerus -31.0712 11.856 84.4087
lradius 31.0077
lwrist 1.2591
lhand -21.9655 24.4454
lfingers 7.12502
lthumb 4.44209 54.3788
rfemur -29.1502 7.56401 12.0569
rtibia 29.5468
rfoot -11.8137 -14.4332
rtoes 3.62945
lfemur -2.00281 1.44115 -27.3469
ltibia 29.1716
lfoot -11.9388 -2.38388
ltoes -16.0192
40
root 9.38008 18.1427 -14.5353 -0.378906 -24.0686 8.37865
lowerback 5.11272 0.0713122 -3.97867
upperback 2.57262 -0.0917526 0.413691
thorax -0.209879 -0.0873602 2.66305
lowerneck -10.4001 6.54299 5.52636
upperneck 18.9217 11.0538 -14.7828
head 8.78503 4.24503 -4.69131
rclavicle 4.37326e-015 2.8625e-014
rhumerus -44.8338 -16.4221 -63.1053
rradius 33.3332
rwrist 4.88112
rhand -7.47795 34.881
rfingers 7.12502
rthumb 18.4111 5.7323
lclavicle 4.37326e-015 2.8625e-014
lhumerus -30.6838 10.9728 84.9831
lradius 30.8234
lwrist 1.7632
lhand -23.9727 21.1033
lfingers 7.12502
lthumb 2.50369 51.0683
rfemur -29 8.41616 11.8893
rtibia 28.5213
rfoot -11.3825 -15.7583
rtoes 3.77441
lfemur -1.61077 1.59014 -27.1712
ltibia 29.6797
lfoot -11.2383 -2.80063
ltoes -16.1778
41
root 9.26588 18.1255 -14.3644 -0.469494 -23.5446 8.2471
lowerback 5.23215 0.00409959 -3.95096
upperback 2.57718 -0.183444 0.605343
thorax -0.264009 -0.13298 2.85043
lowerneck -10.6508 6.54811 5.38066
upperneck 19.0454 11.1371 -14.9254
head 8.88678 4.24382 -4.70176
rclavicle -9.93923e-016 -2.38542e-015
rhumerus -45.1141 -16.1785 -62.8106
rradius 33.4726
rwrist 4.56109
rhand -7.30051 34.167
rfingers 7.12502
rthumb 18.5818 5.03451
lclavicle -9.93923e-016 -2.38542e-015
lhumerus -30.5232 10.7523 85.6676
lradius 31.1565
lwrist 2.12867
lhand -23.5712 22.1886
lfingers 7.12502
lthumb 2.89152 52.1487
rfemur -28.6245 8.82468 12.1
rtibia 27.816
rfoot -11.0046 -16.7169
rtoes 3.28032
lfemur -1.27799 1.75295 -26.7413
ltibia 30.5892
lfoot -10.6249 -3.41489
ltoes -16.7762
42
root 9.15489 18.1033 -14.1927 -0.501269 -23.0085 8.00026
lowerback 5.20713 -0.113428 -3.73441
upperback 2.70158 -0.326063 0.806699
thorax -0.111104 -0.208948 2.94327
lowerneck -11.0219 6.61484 5.11178
upperneck 19.0547 11.3009 -15.0019
head 8.9712 4.27673 -4.65178
rclavicle -5.36719e-015 -3.18055e-015
rhumerus -45.0093 -16.1647 -62.47
rradius 33.3407
rwrist 4.72156
rhand -7.38178 34.1825
rfingers 7.12502
rthumb 18.5036 5.04259
lclavicle -5.36719e-015 -3.18055e-015
lhumerus -30.3115 10.0081 86.3732
lradius 31.7829
lwrist 2.93266
lhand -23.1362 23.5126
lfingers 7.12502
lthumb 3.31153 53.4666
rfemur -28.2471 8.74217 12.5968
rtibia 27.4992
rfoot -10.3579 -16.8294
rtoes 2.14452
lfemur -1.13764 1.98065 -26.1597
ltibia 31.8229
lfoot -9.88685 -4.11608
ltoes -17.21
43
root 9.0404 18.0805 -14.0211 -0.648753 -22.6309 7.95718
lowerback 5.20769 -0.114783 -3.59089
upperback 2.79213 -0.320302 0.859289
thorax -0.0194622 -0.208416 2.91611
lowerneck -11.1748 6.60537 4.7494
upperneck 19.0585 11.3255 -14.849
head 8.97416 4.26965 -4.52953
rclavicle -5.10877e-014 3.18055e-015
rhumerus -44.8243 -16.4366 -62.0564
rradius 32.5607
rwrist 5.07769
rhand -7.71151 34.4461
rfingers 7.12502
rthumb 18.1864 5.27632
lclavicle -5.10877e-014 3.18055e-015
lhumerus -30.0687 8.95012 86.9391
lradius 32.1408
lwrist 3.74534
lhand -23.9055 23.3586
lfingers 7.12502
lthumb 2.56862 53.3229
rfemur -27.9247 8.57898 12.9833
rtibia 27.641
rfoot -9.22125 -16.7361
rtoes -0.900033
lfemur -1.18491 2.31751 -25.7267
ltibia 33.3448
lfoot -8.97974 -4.80484
ltoes -16.7307
44
root 8.91967 18.0618 -13.8566 -1.00275 -22.4079 8.15824
lowerback 5.44317 0.0439199 -3.73544
upperback 2.8144 -0.124891 0.813063
thorax -0.141975 -0.109861 2.94074
lowerneck -11.3122 6.47647 4.5064
upperneck 19.2758 11.1738 -14.6238
head 9.02845 4.18652 -4.43065
rclavicle -9.74045e-015 0
rhumerus -44.9557 -16.8909 -61.578
rradius 31.8998
rwrist 5.33818
rhand -8.16761 34.0455
rfingers 7.12502
rthumb 17.7476 4.83536
lclavicle -9.74045e-015 0
lhumerus -29.9945 8.46124 87.3239
lradius 32.5026
lwrist 3.97749
lhand -25.5897 21.8089
lfingers 7.12502
lthumb 0.942047 51.7866
rfemur -27.7377 8.70048 13.0902
rtibia 28.3245
rfoot -6.99746 -15.3713
rtoes 2.2226
lfemur -1.30656 2.94734 -25.4375
ltibia 35.1005
lfoot -7.87224 -5.47653
ltoes -16.2043
45
root 8.79964 18.0394 -13.697 -1.45635 -22.1317 8.58047
lowerback 5.78771 0.106169 -4.19559
upperback 2.78015 -0.0807926 0.686763
thorax -0.370435 -0.0858801 3.06824
lowerneck -11.3573 6.41812 4.63027
upperneck 19.4206 11.0829 -14.5935
head 9.08073 4.14777 -4.45491
rclavicle 1.35174e-014 -1.90833e-014
rhumerus -45.086 -17.2321 -61.2751
rradius 31.3824
rwrist 5.83619
rhand -8.46355 33.7173
rfingers 7.12502
rthumb 17.4628 4.48165
lclavicle 1.35174e-014 -1.90833e-014
lhumerus -30.2824 8.29725 87.4239
lradius 33.3281
lwrist 3.90603
lhand -25.7463 21.769
lfingers 7.12502
lthumb 0.790798 51.7473
rfemur -27.6643 8.83606 12.9622
rtibia 29.5417
rfoot -4.64777 -12.6744
rtoes 11.4114
lfemur -1.59396 3.55171 -25.3321
ltibia 37.0673
lfoot -6.33089 -6.12057
ltoes -14.6477
